HIERARCHY
ROOT Character1_Hips
{
  OFFSET -76.157 93.8323 -48.0529
  CHANNELS 6 Xposition Yposition Zposition Zrotation Xrotation Yrotation
  JOINT Character1_Spine
  {
    OFFSET 0 8.754 -1.339
    CHANNELS 3 Zrotation Xrotation Yrotation
    JOINT Character1_Spine1
    {
      OFFSET 0 10.855 -0.645
      CHANNELS 3 Zrotation Xrotation Yrotation
      JOINT Character1_LeftShoulder
      {
        OFFSET 1.467 27.745 1.178
        CHANNELS 3 Zrotation Xrotation Yrotation
        JOINT Character1_LeftArm
        {
          OFFSET 18.486 -1.858 0.275
          CHANNELS 3 Zrotation Xrotation Yrotation
          JOINT Character1_LeftForeArm
          {
            OFFSET 32.391 -1.079 3.409
            CHANNELS 3 Zrotation Xrotation Yrotation
            JOINT Character1_LeftHand
            {
              OFFSET 28.678 -2.281 2.112
              CHANNELS 3 Zrotation Xrotation Yrotation
              End Site
              {
                OFFSET -0.000241878 -0.00028536 -9.11487e-005
              }
            }
            JOINT L_Radius
            {
              OFFSET -8.94447e-005 -0.392541 -0.0893675
              CHANNELS 3 Zrotation Xrotation Yrotation
              End Site
              {
                OFFSET 0 0 0
              }
            }
          }
          JOINT L_Humerus
          {
            OFFSET 42.9881 15.7281 -23.1008
            CHANNELS 3 Zrotation Xrotation Yrotation
            End Site
            {
              OFFSET 0 0 0
            }
          }
        }
        JOINT L_Shoulder
        {
          OFFSET 3.24498e-005 -0.000608592 -0.000527677
          CHANNELS 3 Zrotation Xrotation Yrotation
          End Site
          {
            OFFSET 0 0 0
          }
        }
      }
      JOINT Character1_RightShoulder
      {
        OFFSET -1.467 27.745 1.178
        CHANNELS 3 Zrotation Xrotation Yrotation
        JOINT Character1_RightArm
        {
          OFFSET -18.486 -1.858 0.275
          CHANNELS 3 Zrotation Xrotation Yrotation
          JOINT Character1_RightForeArm
          {
            OFFSET -32.391 -1.079 3.409
            CHANNELS 3 Zrotation Xrotation Yrotation
            JOINT Character1_RightHand
            {
              OFFSET -28.678 -2.281 2.112
              CHANNELS 3 Zrotation Xrotation Yrotation
              End Site
              {
                OFFSET 0.000589556 -0.000254961 0.000258925
              }
            }
            JOINT R_Radius
            {
              OFFSET 0.000437123 -0.392512 -0.0890171
              CHANNELS 3 Zrotation Xrotation Yrotation
              End Site
              {
                OFFSET 0 0 0
              }
            }
          }
          JOINT R_Humerus
          {
            OFFSET -42.9874 15.7281 -23.1005
            CHANNELS 3 Zrotation Xrotation Yrotation
            End Site
            {
              OFFSET 0 0 0
            }
          }
        }
        JOINT R_Shoulder
        {
          OFFSET -3.24498e-005 -0.000608592 -0.000527677
          CHANNELS 3 Zrotation Xrotation Yrotation
          End Site
          {
            OFFSET 0 0 0
          }
        }
      }
      JOINT Character1_Neck
      {
        OFFSET 0 30.836 0.626
        CHANNELS 3 Zrotation Xrotation Yrotation
        JOINT Character1_Head
        {
          OFFSET 0 8.074 3.498
          CHANNELS 3 Zrotation Xrotation Yrotation
          End Site
          {
            OFFSET 0 -0.00153379 1.54668e-005
          }
        }
        JOINT Neck
        {
          OFFSET -0.805319 0.124009 -0.481841
          CHANNELS 3 Zrotation Xrotation Yrotation
          End Site
          {
            OFFSET 0 0 0
          }
        }
      }
      JOINT Torso
      {
        OFFSET 0 -0.000828813 -0.000380861
        CHANNELS 3 Zrotation Xrotation Yrotation
        End Site
        {
          OFFSET 0 0 0
        }
      }
    }
    JOINT Spine
    {
      OFFSET -0.0750787 -0.0453694 -0.209464
      CHANNELS 3 Zrotation Xrotation Yrotation
      End Site
      {
        OFFSET 0 0 0
      }
    }
  }
  JOINT Character1_RightUpLeg
  {
    OFFSET -9.035 -4.63425 1.845
    CHANNELS 3 Zrotation Xrotation Yrotation
    JOINT Character1_RightLeg
    {
      OFFSET -0.919521 -40.345 1.155
      CHANNELS 3 Zrotation Xrotation Yrotation
      JOINT Character1_RightFoot
      {
        OFFSET 1.95452 -45.2655 -4.18888
        CHANNELS 3 Zrotation Xrotation Yrotation
        JOINT Character1_RightToeBase
        {
          OFFSET 1.87056 -6.69517 14.7145
          CHANNELS 3 Zrotation Xrotation Yrotation
          End Site
          {
            OFFSET 0 0 0
          }
        }
        JOINT R_Foot
        {
          OFFSET 8 -7.75529 4.18888
          CHANNELS 3 Zrotation Xrotation Yrotation
          End Site
          {
            OFFSET 0 0 0
          }
        }
      }
      JOINT R_Tibia
      {
        OFFSET 0 0 0
        CHANNELS 3 Zrotation Xrotation Yrotation
        End Site
        {
          OFFSET 0 0 0
        }
      }
    }
    JOINT R_Femur
    {
      OFFSET 0 0 0
      CHANNELS 3 Zrotation Xrotation Yrotation
      End Site
      {
        OFFSET 0 0 0
      }
    }
  }
  JOINT Character1_LeftUpLeg
  {
    OFFSET 9.035 -4.63425 1.845
    CHANNELS 3 Zrotation Xrotation Yrotation
    JOINT Character1_LeftLeg
    {
      OFFSET 0.919521 -40.345 1.155
      CHANNELS 3 Zrotation Xrotation Yrotation
      JOINT Character1_LeftFoot
      {
        OFFSET -1.95452 -45.2655 -4.18888
        CHANNELS 3 Zrotation Xrotation Yrotation
        JOINT Character1_LeftToeBase
        {
          OFFSET -1.87056 -6.69517 14.7145
          CHANNELS 3 Zrotation Xrotation Yrotation
          End Site
          {
            OFFSET 0 0 0
          }
        }
        JOINT L_Foot
        {
          OFFSET -8 -7.75529 4.18888
          CHANNELS 3 Zrotation Xrotation Yrotation
          End Site
          {
            OFFSET 0 0 0
          }
        }
      }
      JOINT L_Tibia
      {
        OFFSET 0 0 0
        CHANNELS 3 Zrotation Xrotation Yrotation
        End Site
        {
          OFFSET 0 0 0
        }
      }
    }
    JOINT L_Femur
    {
      OFFSET 0 0 0
      CHANNELS 3 Zrotation Xrotation Yrotation
      End Site
      {
        OFFSET 0 0 0
      }
    }
  }
  JOINT Pelvis
  {
    OFFSET 0 0 0
    CHANNELS 3 Zrotation Xrotation Yrotation
    End Site
    {
      OFFSET 0 0 0
    }
  }
}
MOTION
Frames:	8
Frame Time:	0.00833333
-76.157 93.8323 -48.0529 -0.93904 0.446611 -33.2088 -3.97569e-016 -9.93923e-017 -0 5.332 6.26743 9.6903 -4.56708 -0.0874816 -2.56882 -60.1328 12.711 -4.63965 0.798091 -0.215729 -100.952 20.2737 -3.73534 -8.32606 2.02293e-015 20 3.38468e-015 83 -3.97569e-015 -85 -7.95139e-016 7.95139e-016 -0 3.76927 -0.896041 14.0333 51.1306 21.2499 17.4147 -5.32405 -1.66493 103.326 -15.514 -3.54576 10.7868 2.7479e-015 20 -3.38468e-015 -83 0 85 -5.09386e-016 4.96962e-016 -0 1.98785e-016 1.19271e-015 9.54166e-015 -12.732 5.08761 31.8909 -6.24504 4.94357 16.4768 1.98785e-016 1.19271e-015 9.54166e-015 2.98274 2.16357 -16.6886 -7.24931 -4.61744 -7.78281 -0.42798 22.9244 -7.49485 10.513 -15.6785 -0.361149 -0.331171 -0.370598 0.0162771 0 1.51661e-021 -0 -1.76556e-031 -1.59028e-015 -6.36111e-015 -2.38542e-015 1.49089e-016 9.54166e-015 25.2878 -17.4414 42.5532 -0.165413 20.0752 -3.3023 -11.492 15.0806 2.05674 3.34883 -9.02944 0.407734 9.93923e-017 7.95139e-016 -0 -7.95139e-016 0 1.59028e-015 0 0 -7.95139e-016 -3.97569e-016 -9.93923e-017 -0 
-76.1698 93.7804 -47.8104 -0.899572 0.430633 -32.2764 2.48481e-016 -1.49089e-016 -0 5.24032 6.10181 10.2355 -4.68909 -0.0821596 -2.55581 -60.6992 14.5698 -4.03282 -0.170973 0.0391152 -98.6609 19.5281 -3.62389 -8.34601 7.80522e-015 20 5.07701e-015 83 -5.56597e-015 -85 3.97569e-016 0 3.18055e-015 3.74934 -0.910966 14.21 50.8121 21.5546 18.6149 -5.57569 -1.89228 104.71 -15.1965 -3.53635 10.9981 4.77083e-015 20 -0 -83 -1.59028e-015 85 -2.54693e-015 0 -3.18055e-015 -7.95139e-016 -7.95139e-016 -6.36111e-015 -12.4798 5.10996 30.539 -6.25488 4.72585 15.8665 -7.95139e-016 -7.95139e-016 -6.36111e-015 2.92563 2.1116 -15.7877 -7.34613 -4.24371 -8.22106 -0.464679 22.8781 -7.88155 10.7799 -15.8618 -0.339256 -0.341077 -0.382414 0.0162771 -7.58303e-022 -7.58303e-022 -0 3.18055e-015 0 3.18055e-015 -1.10348e-032 1.98785e-016 3.18055e-015 25.1817 -17.9106 42.8117 -0.328356 20.8759 -4.78239 -11.9504 14.2102 2.1068 3.69592 -9.62525 0.470697 -1.39149e-015 0 -0 4.96962e-016 0 -3.97569e-016 1.59028e-015 -3.18055e-015 -1.59028e-015 2.48481e-016 -1.49089e-016 -0 
-76.1813 93.7285 -47.569 -0.859848 0.416059 -31.3439 2.23633e-016 -9.93923e-017 3.18055e-015 5.15159 5.92896 10.7668 -4.81273 -0.0759844 -2.52872 -61.3049 16.4286 -3.41478 -1.15494 0.216677 -96.3667 18.7936 -3.50844 -8.34298 -1.15763e-015 20 3.38468e-015 83 -3.97569e-015 -85 -3.97569e-016 0 3.18055e-015 3.73156 -0.92655 14.3997 50.4742 21.8496 19.8156 -5.81753 -2.13213 106.093 -14.881 -3.52698 11.2132 -1.15763e-015 20 3.38468e-015 -83 1.59028e-015 85 7.0817e-016 0 -0 -3.97569e-016 -1.59028e-015 -0 -12.2282 5.13387 29.2008 -6.27248 4.50581 15.2626 -3.97569e-016 -1.59028e-015 -0 2.87209 2.059 -14.8957 -7.44092 -3.86231 -8.6587 -0.50247 22.8166 -8.26764 11.0544 -16.0326 -0.316767 -0.351011 -0.393173 0.0162771 1.26283e-037 2.27491e-021 -3.18055e-015 -0 0 3.18055e-015 2.98177e-016 -1.19271e-015 3.18055e-015 25.0771 -18.3792 43.0702 -0.498369 21.6819 -6.25781 -12.3605 13.3205 2.13879 3.89025 -10.1308 0.517826 1.14301e-015 -7.95139e-016 -1.19271e-015 -1.3418e-015 0 1.19271e-015 -2.38542e-015 -3.18055e-015 -0 2.23633e-016 -9.93923e-017 3.18055e-015 
-76.1915 93.6766 -47.3288 -0.819899 0.402893 -30.4114 -9.93923e-017 1.98785e-016 -3.18055e-015 5.06417 5.75155 11.2916 -4.93629 -0.0695321 -2.49571 -61.9511 18.2852 -2.78461 -2.1492 0.316334 -94.071 18.0705 -3.38961 -8.31731 -5.20348e-015 20 -3.38468e-015 83 2.78299e-015 -85 -3.97569e-016 0 -3.18055e-015 3.71563 -0.942308 14.5947 50.1169 22.1313 21.02 -6.04914 -2.38359 107.474 -14.5673 -3.51765 11.4323 -6.36111e-015 20 -0 -83 0 85 3.13707e-015 0 -7.95139e-016 7.95139e-016 0 -0 -11.9749 5.15632 27.8681 -6.28904 4.28472 14.6476 7.95139e-016 0 -0 2.81681 2.00449 -13.9859 -7.53351 -3.47336 -9.09591 -0.541413 22.7403 -8.65307 11.3361 -16.1909 -0.293794 -0.360757 -0.404083 0.0172801 3.79152e-022 -1.32703e-021 3.18055e-015 1.59028e-015 0 -6.36111e-015 1.68967e-015 9.93923e-016 3.18055e-015 24.9726 -18.8484 43.3288 -0.671888 22.493 -7.72987 -12.7239 12.4132 2.15408 3.9305 -10.5392 0.546382 1.44119e-015 0 -3.97569e-016 1.2424e-015 -7.95139e-016 -3.97569e-016 1.59028e-015 3.18055e-015 -0 -9.93923e-017 1.98785e-016 -3.18055e-015 
-76.2005 93.6249 -47.0898 -0.779759 0.391133 -29.4789 2.48481e-017 0 -0 4.97837 5.57527 11.8227 -5.05971 -0.0635814 -2.47027 -62.6394 20.137 -2.14318 -3.14902 0.337618 -91.7759 17.3593 -3.26793 -8.26929 -6.65052e-015 20 8.46169e-016 83 5.96354e-016 -85 -1.98785e-016 -7.95139e-016 -0 3.69684 -0.95798 14.7816 49.7394 22.3963 22.2353 -6.27039 -2.64677 108.853 -14.2556 -3.50821 11.655 7.51874e-015 20 -3.38468e-015 -83 -1.59028e-015 85 1.00635e-015 1.98785e-016 -3.97569e-016 -8.94531e-016 -3.97569e-016 -3.18055e-015 -11.7207 5.17653 26.5275 -6.29601 4.06371 14.0036 -8.94531e-016 -3.97569e-016 -3.18055e-015 2.75465 1.9467 -13.0312 -7.62367 -3.07675 -9.53294 -0.581639 22.6485 -9.03763 11.6248 -16.3361 -0.270403 -0.370428 -0.414419 0.0186739 1.01026e-036 6.06643e-021 -9.54166e-015 -4.77083e-015 -3.18055e-015 -6.36111e-015 -1.98785e-016 -2.5842e-015 9.54166e-015 24.8675 -19.319 43.5875 -0.849179 23.3116 -9.19797 -13.0268 11.4812 2.15036 3.79539 -10.83 0.550646 2.93207e-015 -7.95139e-016 3.97569e-016 9.93923e-017 0 -0 -1.59028e-015 3.18055e-015 -0 2.48481e-017 0 -0 
-76.2067 93.5411 -46.7562 -0.757689 0.333721 -28.3463 3.47873e-016 4.96962e-017 -6.36111e-015 4.87397 5.37328 12.3839 -5.19632 -0.0553602 -2.41115 -63.2694 21.7293 -1.39939 -3.3583 0.204471 -89.1345 15.6738 -2.91897 -7.86734 6.65052e-015 20 -8.46169e-016 83 -9.93923e-017 -85 1.98785e-016 7.95139e-016 -0 3.62254 -0.980462 14.9482 49.0088 22.7268 23.5504 -6.53686 -2.94501 110.222 -13.8946 -3.50318 11.959 1.15646e-014 20 3.38468e-015 -83 -3.18055e-015 85 1.53748e-015 -1.98785e-016 -0 -2.20695e-032 -3.97569e-016 -3.18055e-015 -11.3951 5.25285 24.9937 -6.29761 3.84561 13.3253 -2.20695e-032 -3.97569e-016 -3.18055e-015 2.68796 1.8885 -12.0219 -7.6833 -2.54894 -9.95877 -0.643548 22.6008 -9.59854 12.0042 -16.5679 -0.235896 -0.382504 -0.428117 0.0202912 1.26283e-037 -7.58303e-022 9.54166e-015 -1.59028e-015 -1.59028e-015 3.18055e-015 -1.19271e-015 1.59028e-015 3.18055e-015 24.5836 -19.7641 43.8621 -0.997632 24.4811 -10.2462 -12.4848 9.83553 1.94056 3.11421 -10.6969 0.470992 -4.96962e-016 7.95139e-016 -0 -7.70291e-016 0 3.97569e-016 8.82781e-032 -3.18055e-015 1.59028e-015 3.47873e-016 4.96962e-017 -6.36111e-015 
-76.2108 93.4573 -46.4244 -0.733664 0.277354 -27.2137 2.48481e-017 0 6.36111e-015 4.77199 5.16875 12.9377 -5.33323 -0.0466998 -2.34141 -63.9415 23.3202 -0.641655 -3.54811 0.052589 -86.495 13.9913 -2.57937 -7.43954 -1.69734e-015 20 -4.33662e-015 83 4.12478e-015 -85 -1.98785e-016 0 6.36111e-015 3.54894 -1.00327 15.1177 48.2532 23.0396 24.8742 -6.7905 -3.25641 111.589 -13.536 -3.50041 12.2677 4.77083e-015 20 -0 -83 -6.36111e-015 85 1.15233e-015 1.98785e-016 -9.93923e-017 -3.97569e-016 0 -0 -11.0682 5.32677 23.4661 -6.29664 3.62891 12.6223 -3.97569e-016 0 -0 2.61851 1.82947 -10.9734 -7.73849 -2.00959 -10.3845 -0.707163 22.5291 -10.1592 12.3936 -16.7795 -0.200559 -0.394388 -0.441057 0.0219643 -3.31758e-022 -1.25594e-021 -3.18055e-015 -1.59028e-015 3.18055e-015 -0 -5.96354e-016 -5.96354e-016 6.36111e-015 24.3046 -20.197 44.1352 -1.14484 25.6215 -11.2841 -12.0853 8.30714 1.7766 2.49943 -10.5938 0.394705 1.2921e-015 -7.95139e-016 7.95139e-016 -2.23633e-016 0 7.95139e-016 -3.18055e-015 0 -0 2.48481e-017 0 6.36111e-015 
-76.213 93.3734 -46.0945 -0.707718 0.22208 -26.0811 -8.69683e-017 -2.48481e-017 -6.36111e-015 4.67193 4.97251 13.4945 -5.47094 -0.0375294 -2.25931 -64.65 24.9171 0.116499 -3.71858 -0.11588 -83.8574 12.3114 -2.25039 -6.98774 6.36111e-015 20 -0 83 -1.39149e-015 -85 1.98785e-016 7.95139e-016 -0 3.47039 -1.02563 15.2673 47.468 23.3368 26.2284 -7.03381 -3.58126 112.953 -13.1797 -3.49793 12.5787 -7.95139e-015 20 -0 -83 -6.36111e-015 85 -1.03741e-015 0 -0 -5.96354e-016 -7.95139e-016 -1.59028e-015 -10.7408 5.3897 21.9324 -6.28269 3.40823 11.8994 -5.96354e-016 -7.95139e-016 -1.59028e-015 2.54085 1.76311 -9.89574 -7.7889 -1.45894 -10.8098 -0.77235 22.4338 -10.7198 12.7923 -16.9708 -0.164579 -0.406116 -0.454569 0.0235258 3.03321e-021 -9.09964e-021 -0 -6.36111e-015 -1.59028e-015 -3.18055e-015 -3.97569e-016 2.38542e-015 -3.18055e-015 24.033 -20.6202 44.4068 -1.29242 26.7379 -12.316 -11.8262 6.89457 1.65114 1.95062 -10.5229 0.322786 6.70898e-016 0 7.95139e-016 3.85145e-016 0 -3.97569e-016 7.95139e-016 -6.36111e-015 -1.59028e-015 -8.69683e-017 -2.48481e-017 -6.36111e-015 
